<svg xmlns="http://www.w3.org/2000/svg" xmlns:xlink="http://www.w3.org/1999/xlink" width="176.001" height="61.795" viewBox="0 0 176.001 61.795">
  <defs>
    <linearGradient id="linear-gradient" x1="0.009" y1="0.966" x2="0.985" y2="0.056" gradientUnits="objectBoundingBox">
      <stop offset="0" stop-color="#43e97b"/>
      <stop offset="1" stop-color="#38f9d7"/>
    </linearGradient>
  </defs>
  <g id="Group_31" data-name="Group 31" transform="translate(-462 -382.313)">
    <text id="Moviez" transform="translate(462 431)" fill="#fff" font-size="34" font-family="Poppins-Medium, Poppins" font-weight="500"><tspan x="0" y="0">Moviez</tspan></text>
    <path id="Path_1" data-name="Path 1" d="M0,0,.391-.07,2.374,23.4,0,24Z" transform="translate(522.174 385.49) rotate(-31)" fill="url(#linear-gradient)"/>
    <path id="Path_2" data-name="Path 2" d="M.009.056.323.051,5.046,19.294l-1.885.17Z" transform="translate(549.401 390.335) rotate(47)" fill="url(#linear-gradient)"/>
    <g id="Ellipse_4" data-name="Ellipse 4" transform="translate(534 404)" stroke="#131417" stroke-width="1" fill="url(#linear-gradient)">
      <circle cx="3.5" cy="3.5" r="3.5" stroke="none"/>
      <circle cx="3.5" cy="3.5" r="3" fill="none"/>
    </g>
    <circle id="Ellipse_5" data-name="Ellipse 5" cx="1.5" cy="1.5" r="1.5" transform="translate(520.133 383.158) rotate(-9)" fill="url(#linear-gradient)"/>
    <circle id="Ellipse_6" data-name="Ellipse 6" cx="1.5" cy="1.5" r="1.5" transform="translate(550.699 387.902) rotate(69)" fill="url(#linear-gradient)"/>
    <path id="Polygon_1" data-name="Polygon 1" d="M20.57,5.717a4,4,0,0,1,6.86,0L44.365,33.942A4,4,0,0,1,40.935,40H7.065a4,4,0,0,1-3.43-6.058Z" transform="matrix(0.485, -0.875, 0.875, 0.485, 578.872, 424.295)" opacity="0.49" fill="url(#linear-gradient)"/>
    <path id="Polygon_2" data-name="Polygon 2" d="M20.57,5.717a4,4,0,0,1,6.86,0L44.365,33.942A4,4,0,0,1,40.935,40H7.065a4,4,0,0,1-3.43-6.058Z" transform="translate(638.001 394.999) rotate(90)" fill="url(#linear-gradient)"/>
    <text id="TV" transform="translate(603 423)" fill="#fff" font-size="15" font-family="Poppins-Medium, Poppins" font-weight="500"><tspan x="0" y="0">TV</tspan></text>
    <g id="Polygon_3" data-name="Polygon 3" transform="translate(583.136 437.162) rotate(-80)" fill="none" opacity="0.49">
      <path d="M20.57,5.717a4,4,0,0,1,6.86,0L44.365,33.942A4,4,0,0,1,40.935,40H7.065a4,4,0,0,1-3.43-6.058Z" stroke="none"/>
      <path d="M 23.99999809265137 4.274600982666016 C 22.7591381072998 4.274600982666016 21.63718795776367 4.909839630126953 20.99877738952637 5.973869323730469 L 4.06353759765625 34.19926071166992 C 3.406196594238281 35.29482269287109 3.389579772949219 36.61264038085938 4.019058227539063 37.72443008422852 C 4.648548126220703 38.83623123168945 5.787128448486328 39.5 7.06475830078125 39.5 L 40.93523788452148 39.5 C 42.21286773681641 39.5 43.35145950317383 38.83623123168945 43.98093795776367 37.72444152832031 C 44.61042785644531 36.61264038085938 44.59379959106445 35.29482269287109 43.93645858764648 34.19926071166992 L 27.00121879577637 5.973869323730469 C 26.36280822753906 4.909839630126953 25.24084854125977 4.274600982666016 23.99999809265137 4.274600982666016 M 23.99999809265137 3.774600982666016 C 25.32658004760742 3.774600982666016 26.65316390991211 4.421939849853516 27.42996788024902 5.716621398925781 L 44.36520767211914 33.94200897216797 C 45.96486663818359 36.60811233520508 44.04441833496094 39.99999237060547 40.93523788452148 40 L 7.06475830078125 40 C 3.955589294433594 39.99999237060547 2.035129547119141 36.60811233520508 3.634788513183594 33.94200897216797 L 20.57002830505371 5.716621398925781 C 21.34683227539063 4.421939849853516 22.67341613769531 3.774600982666016 23.99999809265137 3.774600982666016 Z" stroke="none" fill="#3df1aa"/>
    </g>
  </g>
</svg>
